<?xml version="1.0" encoding="utf-8"?>
<!-- Generator: Adobe Illustrator 24.2.2, SVG Export Plug-In . SVG Version: 6.00 Build 0)  -->
<svg version="1.1" id="Layer_1" xmlns="http://www.w3.org/2000/svg" xmlns:xlink="http://www.w3.org/1999/xlink" x="0px" y="0px"
	 viewBox="0 0 500 500" style="enable-background:new 0 0 500 500;" xml:space="preserve">
<style type="text/css">
	.st0{fill:url(#SVGID_1_);}
</style>
<linearGradient id="SVGID_1_" gradientUnits="userSpaceOnUse" x1="67.7789" y1="250" x2="432.221" y2="250">
	<stop  offset="0" style="stop-color:#00FFFF"/>
	<stop  offset="1" style="stop-color:#0099FF"/>
</linearGradient>
<path class="st0" d="M309.5,119l-4.9,25.1c59.8,22.2,102.3,79.7,102.3,147.2c0,56.8-30.2,106.6-75.5,134.2h0
	c-33.9-19.2-73.1-30.2-114.8-30.2c-25.4,0-49.9,4.1-72.8,11.6c-31.2-28.7-50.8-69.8-50.8-115.5c0-66.6,41.5-123.6,100.1-146.3
	l15.7-31.3c-80.8,18.7-141.1,91.1-141.1,177.6c0,48.8,19.2,93,50.3,125.7c33.2,34.8,80,56.5,131.9,56.5c38.9,0,75-12.2,104.6-33
	c47-33,77.6-87.5,77.6-149.2C432.2,211.5,380.9,143.6,309.5,119z M363.5,282.8l4.7-51.6c-23.5-12.3-47.4-21.1-71.6-26.7l1.1-15.6
	c-5.4-1.3-16.9-1.9-22.4-2.9l14.5-73.7l-34.5,1.7l20.5-87.5L228.3,121l-8.5,16.9l39.4-0.2L245,181.3c-4.3-0.1-18,0.1-22.4,0.2
	l-1.2,15.9c-26,1-52.4,5.4-79.1,13.1l-4.6,50.1l-18.4-1.8l-4.3,45.6l18.5,2l-3.7,40.5c73.9,36.9,149.1,45,225.8,20.7l3.3-36.2
	l18.8,2.1l3-49.1L363.5,282.8z M332.7,279.8l-4.4,48.3l-1.4,15.5c-19.5,4.6-39.1,7-58.5,7c-34.8,0-70.2-7.6-105.6-22.6l1.7-18.1
	l4.2-46.2l2.6-28.6c20.8-4.6,41.4-6.9,61.3-6.9c35.1,0,69.7,7.3,102.9,21.7L332.7,279.8z M304,291c0,2.1-0.8,4.2-2.4,5.8
	c-3.2,3.2-8.4,3.2-11.6,0l-7-7l-7,7c-3.2,3.2-8.4,3.2-11.6,0c-1.6-1.6-2.4-3.7-2.4-5.8c0-2.1,0.8-4.2,2.4-5.8l11.6-11.6
	c1.9-1.9,4.5-2.6,7-2.6c2.5,0,5.1,0.7,7,2.6l11.6,11.6C303.2,286.8,304,288.9,304,291z M234.6,285.4c0,2.1-0.8,4.2-2.4,5.8
	c-3.2,3.2-8.4,3.2-11.6,0l-7-7l-7,7c-3.2,3.2-8.4,3.2-11.6,0c-1.6-1.6-2.4-3.7-2.4-5.8c0-2.1,0.8-4.2,2.4-5.8l11.6-11.6
	c1.9-1.9,4.5-2.6,7-2.6c2.5,0,5.1,0.7,7,2.6l11.6,11.6C233.8,281.2,234.6,283.3,234.6,285.4z"/>
</svg>
