<?xml version="1.0" encoding="utf-8"?>
<!-- Generator: Adobe Illustrator 24.2.2, SVG Export Plug-In . SVG Version: 6.00 Build 0)  -->
<svg version="1.1" id="Ñëîé_1" xmlns="http://www.w3.org/2000/svg" xmlns:xlink="http://www.w3.org/1999/xlink" x="0px" y="0px"
	 viewBox="0 0 362.3 579" style="enable-background:new 0 0 362.3 579;" xml:space="preserve">
<style type="text/css">
	.st0{fill:#00FFFF;}
	.st1{fill:#4F007E;}
	.st2{fill:#BA4BFF;}
	.st3{opacity:0.31;fill:#9F2540;}
	.st4{fill:#5D257E;}
	.st5{fill:#0099FF;}
	.st6{fill:#0000FF;}
	.st7{opacity:0.34;fill:#760040;}
	.st8{opacity:0.5;fill:#BB7093;}
	.st9{opacity:0.73;fill:url(#SVGID_1_);}
	.st10{fill:url(#SVGID_2_);}
	.st11{fill:url(#SVGID_3_);}
	.st12{opacity:0.35;fill:#554159;}
	.st13{fill:#99FFEA;}
	.st14{fill:#B3D1D3;}
	.st15{opacity:0.73;fill:url(#SVGID_4_);}
	.st16{fill:url(#SVGID_5_);}
	.st17{opacity:0.73;fill:url(#SVGID_6_);}
	.st18{fill:url(#SVGID_7_);}
	.st19{opacity:0.2;fill:#760040;}
	.st20{opacity:0.5;fill:#9C82FF;}
</style>
<g>
	<g>
		<g>
			<g>
				<path class="st0" d="M19.5,210.8L19.5,210.8L19.5,210.8l-0.4,0.1l0.3,1.5l3.9,23l0.9-0.2c0.6,3.8,1.2,7.7,1.7,11.3
					c0.4,2.8,0.9,5.4,1.3,7.7h-2.9l6.6,38.6l0.7,4l0.8,4.9l1.6,9.1l-7.8,0l-10.3,0.8l0.6,0h-4.1l5.5,41l64.8-1.7L49.8,546.5
					l-3.7,21.9h0l3.4,0.9l14.1-84.5l10.1-48.3l18-85.7l5.8-27.4l1.9-8.9l0-0.1l0.5-2.3l0.1-0.7l0.1-0.4l1.2-5.6l3.1-14.7l0.9-4.4
					l0.5-2.2l0.1-0.3l0.9-4.5l5.3-25.2l14.7-26.6L182.3,127l6.4-11.6l1.6-2.8l3.6-6.5l2.9-16.9l2.7-15.9l2.5-14.4L215.2,18h-27.9
					l-1.2,71.2l-34.4,0.1l0.5-3l-9.9-21.6l-13.9-0.2l-2,24.9l-18.6-0.2L85.4,283.2l4.3,2.6l3.8,0.1l-4.2,25l-16-0.1l2.9-19.4l0-0.2
					h0l5.4-36.2l0.1-0.9h0l0,0H64.6c0-0.2,0-0.3,0-0.5c0-0.2,0-0.5,0.1-0.7c0.2-2,0.4-4.1,0.6-6.1l0.6,0.2l1.9-20.8l-0.2-0.1l0,0
					c0.6-1.2,1.9-4.3,2.5-7.3c0.4-1.8,0.3-4.2,0.1-6.4c-0.2-2.6-0.6-5-0.6-6.3c0-0.9,0.1-1.8,0.2-2.6c-0.5,1.3-1,2.9-1.3,4.5
					c-0.4,2.7-0.4,6.1-0.4,6.5c0-0.5-0.2-5.3-0.2-6.8c0-0.4,0.1-0.9,0.2-1.6c-1,2.5-2.1,5.5-2.5,7.7c-0.4,1.9-0.6,4.6-0.6,7
					c0,1.7,0,3.3,0.1,4.4l0,0l-0.2-0.1l-0.2,1.3l-3.3,18.9l0.4,0.2c-0.6,2.9-1.1,5.9-1.6,8.7h-7.2c0-0.6,0-1.2,0-1.8
					c0-0.4,0-0.8,0-1.2c0-0.1,0-0.2,0-0.3c0-0.3,0-0.6,0-0.9c0-0.3,0-0.6,0-0.9c-0.1-3.1-0.2-6.4-0.3-9.6c0.6-0.1,1.1-0.1,1.1-0.1
					s-0.6-11.8-0.2-12.3c0.2-0.2,0.4-0.4,0.6-0.6c3.5-0.2,7.6-0.6,8.6-1.4c0.7-0.6,1.2-8.7,1.2-8.7l-1.5,0c0.2-1,0.4-2.3,0.7-3.8
					c0.4-2,0.8-4.4,1.2-6.8c0,0,0,0,0,0v0c0.8-5,4-9.3,3.9-11.5c0-0.2-2.5-1.3-2.5-1.4c0,0,0,0,0,0c-0.5,1-3.4,1.5-7.3,1.7
					c-0.6,2.8-1.9,14.1-1.9,14.1l0.2-14l0,0l-5.4-0.1l0,0.1l-0.6,6.6l-0.7-6.6c-5.1-0.2-10.2-0.5-13.4-0.8
					c0.3,4.5,0.8,13.1,1.7,18.9c0.2,1.5,0.5,2.9,0.8,3.9l-1.1,0c0,0,0,0,0,0.1l0,0c0,0.2,0,0.4,0,0.6v0.1c0,0.1,0,0.1,0,0.2
					c0,0.1,0,0.3,0,0.4c0,2.1,0,6,0.5,7c0,0.1,0.1,0.1,0.1,0.2c0.6,0.8,5.8,1.4,9.7,1.5c0.1,0.1,0.1,0.3,0.1,0.5
					c0,0.7-1.5,12.7-1.5,12.7s0.3,0,0.8,0c-0.4,4.4-0.7,8.9-1.1,13.1c0,0.4-0.1,0.9-0.1,1.3h-8.7c-0.2-0.6-0.3-1.2-0.5-1.8
					c-0.7-2.5-1.6-5.5-2.6-8.8c-0.1-0.4-0.2-0.7-0.3-1.1c0-0.1-0.1-0.2-0.1-0.3c-0.1-0.3-0.2-0.6-0.3-0.9c-0.1-0.3-0.2-0.6-0.3-0.8
					c-0.7-2.3-1.5-4.6-2.2-7l1.3-0.3l-7.8-23.7l-0.4,0.1l0,0c0.4-1.7,1.2-5.4,1-8.8c0-0.4-0.1-0.8-0.1-1.2c0-0.1,0-0.1,0-0.2
					c0-0.2-0.1-0.4-0.1-0.7c-0.5-2-1.7-4.1-3.1-6c-1.8-2.6-3.8-4.8-4.5-6.1c-0.5-0.9-0.9-2-1.1-2.9c-0.2,1.8-0.4,4,0,5.8
					c0.8,3.2,2.6,6.7,2.8,7.2c-0.3-0.5-3.2-5.4-4.1-7c-0.2-0.4-0.4-1.1-0.5-1.9c-0.5,3.6-0.9,7.7-0.7,10.4c0.2,2.4,1.4,5.4,2.7,8
					c0.1,0.2,0.2,0.4,0.3,0.6c0.1,0.2,0.2,0.4,0.3,0.6c0,0,0,0.1,0.1,0.1c0.1,0.2,0.2,0.3,0.3,0.5c0,0,0,0,0,0
					c0.5,0.9,1,1.8,1.4,2.5C19.4,210.6,19.4,210.7,19.5,210.8z"/>
				<g>
					<g>
						<polygon class="st1" points="164.9,322.5 175,320.9 180.8,320 181.7,313.7 181.9,312.3 181.9,312.3 184.4,294.1 184.4,294.1 
							184.7,291.9 185,290.3 185.1,289.4 185.1,289 185.4,287.5 213,90 221.9,27.4 215.2,18 191.7,20.1 188.5,90.1 184.7,127.9 
							169.2,280.2 168.5,286.9 168.4,288.2 168.2,289.7 167.8,294.1 167.8,294.1 165.9,312.2 165.9,312.3 165.8,313.6 						"/>
						<polygon class="st2" points="164.9,322.5 175,320.9 175.9,313.7 176.1,312.3 176.1,312.2 178.6,294.1 178.6,294.1 
							179.1,290.1 179.3,288.7 179.5,287.3 179.5,287.1 203.8,106 204.2,103.3 206,90 215.2,18 191.7,20.1 188.5,90.1 184.7,127.9 
							169.2,280.2 168.5,286.9 168.4,288.2 168.2,289.7 167.8,294.1 167.8,294.1 165.9,312.2 165.9,312.3 165.8,313.6 						"/>
						<polygon class="st3" points="187.9,118.9 204.4,105.5 204.6,102.9 187.9,117.7 						"/>
						<polygon class="st3" points="190.9,89.1 209.3,64.1 211.4,48.2 191.7,80.5 						"/>
					</g>
					<g>
						<polygon class="st1" points="263.3,261.6 349.1,567.4 340.1,567.4 258.1,289.5 						"/>
						<polygon class="st2" points="340.1,567.4 335.7,567.4 260.7,313.8 262.9,305.6 						"/>
						<polygon class="st1" points="285.5,397.7 298.6,402.6 265.4,289.2 258.1,304.9 						"/>
					</g>
					<g>
						<polygon class="st1" points="104,261.6 189.8,567.4 180.8,567.4 98.8,289.5 						"/>
						<polygon class="st2" points="180.8,567.4 176.3,567.4 101.4,313.8 103.5,305.6 						"/>
						<polygon class="st1" points="126.2,397.7 139.3,402.6 106.1,289.2 98.8,304.9 						"/>
					</g>
					<polygon class="st1" points="52.8,569.3 67.7,569.3 92.7,430.9 94.2,422.5 107,351.6 109.1,339.9 109.1,339.8 110.8,330.3 
						113.6,314.8 113.9,313.2 114.1,312.3 114.1,312 115.7,303.3 118.5,287.7 118.9,285.7 119,285.2 129.2,228.4 154.2,90.1 
						154.7,87.1 142.4,65.5 133.1,65.5 129.1,90.2 98.2,284.5 98.1,284.6 97.8,286.9 93.8,311.9 93.7,312.3 93.6,313 87.5,351.6 
						66.1,485.7 					"/>
					<polygon class="st2" points="48.5,569.3 52.8,569.3 76.2,437.3 91.5,351.6 98.4,313 98.5,312.3 98.6,311.9 99.4,307.1 
						100.5,301.3 101.1,297.5 103,287.1 103.4,284.9 103.4,284.6 106.1,269.3 138,90.2 142.4,65.5 133.1,65.5 128.9,90.2 
						96.3,284.4 96.3,284.5 95.9,286.8 91.7,311.9 91.7,312.3 91.6,313 85.1,351.6 					"/>
					<polygon class="st1" points="217.3,569.3 304.3,87.1 292,65.5 282.7,65.5 202.4,569.3 					"/>
					<polygon class="st2" points="292,65.5 202.4,569.3 198.2,569.3 282.7,65.5 					"/>
					<polygon class="st2" points="18.3,312.3 21.1,351.6 266.5,351.6 266.5,335.5 259.5,335.4 244,335.4 239.7,335.4 237.4,335.4 
						198.3,335.2 200,312.3 					"/>
					<polygon class="st1" points="191.1,312.3 191.1,351.6 266.5,351.6 266.5,335.5 198.3,335.2 200,312.3 					"/>
					<polygon class="st4" points="222.3,425.5 89.2,422.3 87,430.9 221.4,430.9 					"/>
					<polygon class="st3" points="72.8,312.3 72.8,312.7 72.8,312.8 72.9,313.6 75.3,351.6 101.4,351.6 100,324.2 99.4,313 
						99.4,312.3 					"/>
					<polygon class="st3" points="43.9,312.3 43.9,351.6 45.6,351.6 50.3,315.2 50.5,313.6 50.7,312.6 50.7,312.3 					"/>
					<polygon class="st5" points="18.3,312.3 18.9,312.3 36.6,312.5 43.9,312.6 49.3,312.6 50.7,312.6 51.4,312.6 60.4,312.7 
						60.9,312.7 72.8,312.8 75.6,312.8 91.6,313 93.6,313 98.4,313 99.4,313 101.2,313 101.6,313.1 102.3,313.1 105.7,313.1 
						113.1,313.1 113.9,313.2 118.4,313.2 165.8,313.6 175.9,313.7 181.7,313.7 191.1,313.8 200,312.3 200,312.3 181.9,312.3 
						176.1,312.2 165.9,312.2 118.1,312 114.1,312 112.8,312 105.4,311.9 105.4,311.9 102.6,311.9 101.9,311.9 100.8,311.9 
						98.6,311.9 93.8,311.9 91.7,311.9 75.8,311.8 75.5,311.8 60.4,311.7 51.6,311.7 49.2,311.7 41.5,311.6 39.7,311.6 36.4,311.6 
						28.6,311.6 					"/>
					<polygon class="st5" points="132.9,66.6 139.1,65.5 133.1,65.5 					"/>
					<polygon class="st0" points="87.9,284.1 96.3,284.5 98.1,284.6 99.7,284.7 103.4,284.9 108.2,285.1 110.6,285.2 118.9,285.7 
						131.4,286.3 165.4,288 168.4,288.2 179.3,288.7 182.1,288.9 184.1,289 185.1,289 244.1,292 247.7,274.2 256.4,230.6 
						281.6,104.3 281.7,103.8 277.3,99.4 277.1,99.2 267.6,89.9 213,90 206,90 199.1,90 188.5,90.1 154.2,90.1 138,90.2 129.1,90.2 
						128.9,90.2 112.4,90.3 					"/>
					<polygon class="st5" points="87.9,284.1 92.2,286.7 95.9,286.8 97.8,286.9 99.2,287 103,287.1 107.7,287.3 111.2,287.4 
						118.5,287.7 131.2,288.2 165.3,289.5 168.2,289.7 179.1,290.1 183.3,290.2 185,290.3 187.7,290.4 244.1,292.6 247,278.2 
						255.9,233.7 281.7,104.4 281.6,104.3 277.2,100 277,99.7 267.6,90.5 235,289.2 185.4,287.5 180.8,287.3 180.7,287.3 
						179.8,287.3 179.8,287.3 179.5,287.3 172.1,287 168.5,286.9 165.5,286.8 131.4,285.6 119,285.2 110.5,284.9 108.3,284.8 
						103.4,284.6 99.7,284.5 98.2,284.5 96.3,284.4 					"/>
					<polygon class="st2" points="130.9,292.5 164.9,294.1 165,294.1 186.6,294.1 181.3,287.8 180.8,287.3 179.8,287.3 172.1,287 
						172.6,284.4 172.9,282.4 172.8,282.3 166.2,278.5 165.7,278.2 132.1,278.1 					"/>
					<polygon class="st1" points="164.9,294.1 188,294.1 188.6,290.8 181.3,287.8 179.8,287.3 172.6,284.4 172.4,284.3 172.8,282.3 
						166.2,278.5 164.9,294.1 					"/>
				</g>
				<g>
					<g>
						<path class="st6" d="M39,194.5c0.3,4.5,0.8,13.1,1.7,18.9c0.2,1.5,0.5,2.9,0.8,3.9c0.2,0.8,0.5,1.4,0.7,1.8
							c1,1.4,5.2,1.6,9.6,1.3c0.8,0,1.6-0.1,2.4-0.2c1.1-0.1,2.2-0.2,3.3-0.3h0c3.9-0.5,6.9-1,6.9-1v0c0,0,0,0,0-0.1
							c0,0,0-0.1,0-0.1c0-0.1,0-0.1,0-0.2c0.1-0.3,0.2-0.7,0.3-1.3c0.2-1,0.4-2.3,0.7-3.8c0.4-2,0.8-4.4,1.2-6.8c0,0,0,0,0,0v0
							c0.8-5,1.6-10.1,1.4-12.4c0-0.2,0-0.4-0.1-0.5c0,0,0,0,0,0c-0.5,1-3.4,1.5-7.3,1.7c-0.6,2.8-1.9,14.1-1.9,14.1l0.2-14l0,0
							l-5.4-0.1l0,0.1l-0.6,6.6l-0.7-6.6C47.3,195.1,42.2,194.8,39,194.5z"/>
						<path class="st7" d="M40.7,213.4c0.2,1.5,0.5,2.9,0.8,3.9c0.2,0.8,0.5,1.4,0.7,1.8c1,1.4,5.2,1.6,9.6,1.3
							c0.8,0,1.6-0.1,2.4-0.2c1.1-0.1,2.2-0.2,3.3-0.3h0c3.9-0.5,6.9-1,6.9-1v0c0,0,0,0,0-0.1c0,0,0-0.1,0-0.1c0-0.1,0-0.1,0-0.2
							c0.1-0.3,0.1-0.8,0.3-1.3c0.5-2.8,1.5-8.2,2-10.6c-1.6,8.7-8.5,9-14.8,9.1C45.8,215.8,42.4,214.4,40.7,213.4z"/>
						<g>
							<path class="st2" d="M47.9,281.4c0,2.2,0,4.4,0,6.6c0,0,0,0,0,0c0,1.4,0,2.8,0.1,4.2c0,0.5,0,1,0,1.5c0,0.3,0,0.7,0,1
								c0,0,0,0,0,0c0,1,0.1,2,0.1,3c0.1,1.6,0.1,3.2,0.2,4.6c0,0.7,0.1,1.4,0.1,2c0.1,1.7,0.2,3.2,0.3,4.6c0.1,1.1,0.2,2,0.3,2.8
								c0,0.2,0.1,0.5,0.1,0.7c0,0.1,0,0.2,0,0.3c0.1,0.4,0.1,0.7,0.2,1c0.1,0.4,0.2,0.7,0.3,0.9c0.1,0.2,0.2,0.4,0.3,0.5
								c0.1,0.1,0.2,0.2,0.3,0.2h0c0.3,0,0.6-0.6,0.8-1.6c0.1-0.3,0.2-0.6,0.3-1c0-0.1,0-0.2,0.1-0.3c0-0.2,0.1-0.4,0.1-0.7
								c0.2-0.9,0.4-1.9,0.5-3.1c0-0.2,0-0.3,0.1-0.5c0.2-1.7,0.5-3.6,0.7-5.6c0-0.1,0-0.2,0-0.3c0.1-0.9,0.2-1.7,0.3-2.7
								c0-0.3,0.1-0.7,0.1-1c0-0.1,0-0.2,0-0.3c0-0.2,0-0.4,0.1-0.6c0-0.4,0.1-0.7,0.1-1.1c0,0,0,0,0,0c0.1-0.9,0.2-1.9,0.3-2.8
								c0-0.5,0.1-1,0.1-1.5c0.1-1.7,0.3-3.5,0.4-5.2c0.1-1.1,0.2-2.2,0.2-3.3c0-0.3,0-0.7,0.1-1c0-0.3,0-0.5,0.1-0.8
								c0-0.1,0-0.2,0-0.3c0-0.6,0.1-1.2,0.1-1.9v0c0.2-3.6,0.4-7,0.5-10.1v0c0,0,0-0.1,0-0.1c0,0,0,0,0,0c0.1-2.5,0.2-4.8,0.2-6.8
								c0-1.6,0-3.3,0-5.2c0-0.8,0-1.6,0-2.5c0-0.2,0-0.4,0-0.6c0-0.4,0-0.8,0-1.2c0-0.4,0-0.8,0-1.2c0-0.1,0-0.2,0-0.3
								c0-0.3,0-0.6,0-0.9c0-0.3,0-0.6,0-0.9c-0.1-3.1-0.2-6.4-0.3-9.6c0-0.1,0-0.3,0-0.4c0-1.2-0.1-2.4-0.1-3.5c0-0.1,0-0.1,0-0.1
								c0-0.8-0.1-1.6-0.1-2.3v0c-0.1-2.3-0.2-4.5-0.2-6.4c0-0.1,0-0.2,0-0.4c-0.1-2.8-0.2-5.2-0.3-6.8c0-0.1,0-0.2,0-0.3
								c0-1.1-0.1-1.8-0.1-2.1c0-0.1,0-0.2,0-0.2l-1.9,0.2l-0.2,0c0,0-0.1,0.8-0.2,2.1c0,0.1,0,0.3,0,0.4c-0.1,1.6-0.4,3.8-0.6,6.5
								c0,0,0,0.1,0,0.1c0,0.1,0,0.2,0,0.4c-0.1,1-0.2,2.1-0.3,3.2c-0.1,1.3-0.2,2.7-0.4,4.1c0,0,0,0,0,0c0,0,0,0,0,0
								c-0.2,1.9-0.3,3.9-0.5,6c-0.4,4.4-0.7,8.9-1.1,13.1c0,0.4-0.1,0.9-0.1,1.3c-0.3,3.5-0.5,6.6-0.6,9.2
								c-0.2,4.5-0.4,10-0.4,15.7C47.9,280.5,47.9,280.9,47.9,281.4z"/>
							<path class="st8" d="M49,253.8c0.9-1.1,2-2.1,2.9-2.2c1-0.2,1.9,0.7,2.3,3.5c0.1,0.9,0.2,2,0.2,3.4c0.1,3.4,0,8.1-0.2,13.2
								c0,0.1,0,0.2,0,0.3c-0.2,6.9-0.5,14.4-0.8,20.3c0,0.5,0,1-0.1,1.5c-0.1,1.5-0.1,2.8-0.2,4c-0.1,2.1-0.2,3.7-0.3,4.6
								c0,0.1,0,0.2,0,0.3c0,0.2,0,0.3,0,0.4c0-0.2,0-0.4,0.1-0.7c0.1-0.9,0.2-1.7,0.3-2.7c0-0.3,0.1-0.7,0.1-1c0-0.1,0-0.2,0-0.3
								c0-0.2,0-0.4,0.1-0.6c0-0.4,0.1-0.7,0.1-1.1c0.1-0.9,0.2-1.9,0.3-2.9c0-0.5,0.1-1,0.1-1.5c0.1-1.7,0.3-3.4,0.4-5.2
								c0.1-1.1,0.2-2.2,0.2-3.3c0-0.3,0-0.7,0.1-1c0-0.3,0-0.5,0.1-0.8c0-0.1,0-0.2,0-0.3c0-0.6,0.1-1.2,0.1-1.9v0
								c0.2-3.5,0.4-6.9,0.5-10.1c0-0.1,0-0.1,0-0.2c0.1-2.6,0.2-4.9,0.2-7.1c0-2.2,0-4.6-0.1-7.3c0-0.6,0-1.2,0-1.8
								c0-0.4,0-0.8,0-1.2c0-0.1,0-0.2,0-0.3c0-0.3,0-0.6,0-0.9c0-0.3,0-0.6,0-0.9c-0.1-3.1-0.2-6.4-0.3-9.6c0-0.1,0-0.3,0-0.4
								c0-1.2-0.1-2.4-0.1-3.5c0-0.1,0-0.1,0-0.1c0-0.8,0-1.6-0.1-2.4l0,0l-3.6,0.7l-0.1,0l-0.5,0.1c0,0,0,0,0,0c0,0,0,0,0,0
								c-0.2,1.9-0.3,3.9-0.5,6C49.7,245.1,49.4,249.6,49,253.8z"/>
							
								<linearGradient id="SVGID_1_" gradientUnits="userSpaceOnUse" x1="2505.1663" y1="-2382.4924" x2="2504.6807" y2="-2381.9399" gradientTransform="matrix(-0.9999 -1.330000e-02 1.330000e-02 -0.9999 2591.4465 -2078.6343)">
								<stop  offset="0" style="stop-color:#A9805A"/>
								<stop  offset="1" style="stop-color:#000000"/>
							</linearGradient>
							<path class="st9" d="M55.4,269.6c-0.1,0.3-0.3,0.5-0.4,0.8c0.1-0.3,0.3-0.6,0.4-0.9c0,0,0,0,0,0c0,0,0,0,0,0
								C55.4,269.5,55.4,269.6,55.4,269.6C55.4,269.6,55.4,269.6,55.4,269.6z"/>
							<path class="st3" d="M48,288C48,288,48,288,48,288c0.6-3.3,1.4-6.3,2.4-8.3c1.4-2.8,2.8-5.6,4-8c0.2-0.4,0.4-0.8,0.6-1.2
								c-0.2,0.5-0.4,0.9-0.6,1.5c-0.8,2-1.8,4.6-2.9,7.7c-1.6,4.6-2.6,10-3.3,15C48,292.5,48,290.2,48,288z"/>
							<path class="st3" d="M47.9,280c0.7-1.3,1.3-2.6,1.9-3.8c0.2-0.4,0.4-0.8,0.6-1.2c-0.2,0.5-0.4,0.9-0.6,1.5
								c-0.6,1.4-1.2,3-1.9,4.9C47.9,280.9,47.9,280.4,47.9,280z"/>
						</g>
						
							<linearGradient id="SVGID_2_" gradientUnits="userSpaceOnUse" x1="2329.3892" y1="221.2596" x2="2308.6924" y2="222.2451" gradientTransform="matrix(-1 0 0 1 2365.6465 0)">
							<stop  offset="0" style="stop-color:#BAD8D8"/>
							<stop  offset="1" style="stop-color:#B3AFB4"/>
						</linearGradient>
						<path class="st10" d="M41,225.7c0,0.1,0.1,0.1,0.1,0.2c0.6,0.8,5.8,1.4,9.7,1.5c0.2,0,0.4,0,0.6,0c0.1,0,0.2,0,0.3,0
							c0.5,0,1,0,1.4,0c0.5,0,1,0,1.6,0c0.6,0,1.3,0,2-0.1c3.5-0.2,7.6-0.6,8.6-1.4c0.7-0.6,1.2-8.7,1.2-8.7l-1.5,0h0l-23.4,0.1
							l-1.1,0c0,0,0,0,0,0.1c0,0.1,0,0.3,0,0.6v0.1c0,0.1,0,0.1,0,0.2c0,0.1,0,0.3,0,0.4C40.4,220.9,40.5,224.7,41,225.7z"/>
						
							<linearGradient id="SVGID_3_" gradientUnits="userSpaceOnUse" x1="2317.0686" y1="233.6346" x2="2311.3469" y2="233.907" gradientTransform="matrix(-1 0 0 1 2365.6465 0)">
							<stop  offset="0" style="stop-color:#BAD8D8"/>
							<stop  offset="1" style="stop-color:#B3AFB4"/>
						</linearGradient>
						<path class="st11" d="M49.4,240.7c0,0,0.3,0,0.8,0c0.8,0,1.9,0,2.6,0c0.6,0,1.6-0.2,2.4-0.3c0,0,0,0,0,0
							c0.6-0.1,1.1-0.1,1.1-0.1s-0.6-11.8-0.2-12.3c0.2-0.2,0.4-0.4,0.6-0.6c0.3-0.2,0.5-0.3,0.5-0.3l-2.5,0l-3.2,0h-0.1l-0.9,0
							c0,0,0.2,0.1,0.4,0.3c0.1,0.1,0.1,0.3,0.1,0.5C50.9,228.7,49.4,240.7,49.4,240.7z"/>
						<path class="st12" d="M42.7,219c0-0.6,4.9-1.1,11-1.1s10.9,0.4,10.9,1c0,0.6-4.9,1.1-11,1.1C47.6,220.1,42.7,219.6,42.7,219z"
							/>
						<path class="st13" d="M40.5,218.7c0,2.4,0.1,6,0.5,7c0,0.1,0.1,0.1,0.1,0.2c0.6,0.8,5.8,1.4,9.7,1.5c0.1,0.1,0.1,0.3,0.1,0.5
							c0,0.7-1.5,12.7-1.5,12.7s0.3,0,0.8,0c0.8,0,1.9,0,2.6,0c0.6,0,1.6-0.2,2.4-0.3c0,0,0,0,0,0c0.6-0.1,1.1-0.1,1.1-0.1
							s-0.5-0.1-1.1-0.3h0c-1.3-0.4-3.4-1.1-3.8-1.5c-0.2-0.2-0.1-1.9,0-3.9c0.2-2.7,0.4-5.9,0.3-7.1c0-0.2-0.1-0.3-0.1-0.3
							c0,0,0,0,0,0c0,0-0.1-0.1-0.1-0.1c-1.3-0.7-8.3-2.1-8.8-2.8c-0.6-0.8-0.2-5-0.2-5l-1.8-1.7l0,0c0,0.2,0,0.4,0,0.6v0.1
							C40.5,218.3,40.5,218.5,40.5,218.7z"/>
						<polygon class="st14" points="64.4,225.1 64.9,222.4 56.3,225.1 56.3,226.4 						"/>
					</g>
					<g>
						<path class="st6" d="M16.7,199.1c0.2,2.4,1.4,5.4,2.7,8c0.1,0.2,0.2,0.4,0.3,0.6c0.1,0.2,0.2,0.4,0.3,0.6c0,0,0,0.1,0.1,0.1
							c0.1,0.2,0.2,0.3,0.3,0.5c0,0,0,0,0,0c0.5,0.9,1,1.8,1.4,2.5c0.1,0.1,0.1,0.2,0.2,0.3v0h0c0,0,0,0,0,0
							c0.5,0.9,0.9,1.4,0.9,1.4h0l0.5-0.2l0.4-0.2l2.7-1.1l0.2-0.1l0.3-0.1c0,0,0.1-0.3,0.2-0.8v0c0,0,0-0.1,0-0.1v0
							c0.4-1.7,1.2-5.4,1-8.8c0-0.4-0.1-0.8-0.1-1.2c0-0.3-0.1-0.6-0.2-0.9c-0.5-2-1.7-4.1-3.1-6c-1.8-2.6-3.8-4.8-4.5-6.1
							c-0.5-0.9-0.9-2-1.1-2.9c-0.2,1.8-0.4,4,0,5.8c0.8,3.2,2.6,6.7,2.8,7.2c-0.3-0.5-3.2-5.4-4.1-7c-0.2-0.4-0.4-1.1-0.5-1.9
							C17,192.3,16.5,196.4,16.7,199.1z"/>
						<path class="st7" d="M19.4,207.1c0.1,0.2,0.2,0.4,0.3,0.6c0.8,1.6,1.6,3,2.2,3.9v0c0,0,0,0,0,0.1c0.5,0.9,0.9,1.4,0.9,1.4
							l0.5-0.2l0.4-0.1l2.7-1.1l0.2-0.1l0.3-0.1c0,0,0.1-0.3,0.2-0.8v0c0,0,0-0.1,0-0.1v0c0.4-1.7,1.2-5.4,1-8.8
							c0-0.4-0.1-0.8-0.1-1.2c0-0.1,0-0.1,0-0.2c0-0.2-0.1-0.4-0.1-0.7c-0.5-2-1.7-4.1-3.1-6c1,2.8,1.9,6,1.9,8.7
							c0,5.4-3.1,6.3-3.1,6.3l-2.9-3.5l1.8,3.8C22.5,208.9,21.6,209.7,19.4,207.1z"/>
						<g>
							<path class="st2" d="M23.2,211.6c0,0,0,0.3,0.1,0.9c0,0.1,0,0.2,0,0.3c0.3,1.9,0.8,5.7,1.4,10.4c0.1,0.3,0.1,0.7,0.1,1
								c0.2,1.3,0.4,2.7,0.6,4.1c0,0,0,0,0,0c0.4,2.5,0.7,5,1.1,7.7c0.6,3.8,1.2,7.7,1.8,11.3c0.4,2.8,0.9,5.4,1.3,7.7
								c0.2,1,0.3,1.9,0.5,2.7c0.3,1.7,0.7,3.6,1.2,5.6c0.7,3.1,1.5,6.3,2.4,9.7c0.1,0.4,0.2,0.9,0.4,1.4c0.6,2.1,1.2,4.2,1.8,6.3
								c0,0,0,0,0,0c0.6,2.2,1.3,4.3,2,6.4c0,0,0,0,0,0c0.5,1.6,1,3.2,1.5,4.6c0,0.1,0.1,0.3,0.1,0.4c0.2,0.5,0.3,1,0.5,1.5
								c0.3,0.9,0.6,1.8,0.9,2.6c0.2,0.5,0.3,0.9,0.5,1.4c0.4,1,0.8,2,1.2,2.9c0.3,0.7,0.6,1.3,0.8,1.8c0.8,1.6,1.4,2.7,2,3.4
								c0.2,0.2,0.4,0.3,0.5,0.4c0.2,0.1,0.3,0.1,0.4,0c0.6-0.2,0.8-1.6,0.9-3.9c0-0.9,0-2-0.1-3.2c0-0.2,0-0.3,0-0.5
								c0-0.3,0-0.6-0.1-0.9c-0.1-1.2-0.2-2.6-0.4-4c0-0.2-0.1-0.5-0.1-0.8c0-0.2-0.1-0.5-0.1-0.7c-0.1-0.7-0.2-1.5-0.3-2.3
								c0-0.3-0.1-0.7-0.1-1c0-0.1,0-0.2,0-0.3c-0.1-0.6-0.2-1.1-0.2-1.7c0-0.2,0-0.3-0.1-0.5c-0.4-2.9-0.9-5.9-1.4-9
								c-0.2-1.1-0.4-2.2-0.5-3.3c-0.1-0.3-0.1-0.7-0.2-1c0-0.3-0.1-0.5-0.1-0.8c0-0.1,0-0.2,0-0.3c-0.1-0.6-0.2-1.2-0.3-1.9
								c0,0,0,0,0,0c-0.7-3.5-1.3-6.9-2-9.9h0c0-0.1,0-0.1,0-0.1v0c-0.4-1.9-0.8-3.6-1.2-5.1c-0.1-0.5-0.3-1-0.4-1.5
								c-0.4-1.5-0.9-3.2-1.4-5c-0.3-1-0.6-2-0.9-3c-0.1-0.4-0.2-0.7-0.3-1.1c-0.1-0.4-0.2-0.7-0.3-1.1c0-0.1-0.1-0.2-0.1-0.3
								c-0.1-0.3-0.2-0.6-0.3-0.9c-0.1-0.3-0.2-0.6-0.3-0.8c-0.7-2.3-1.5-4.6-2.2-7c-0.7-2-1.3-4.1-2-6c0,0,0-0.1,0-0.1
								c-0.2-0.8-0.5-1.5-0.7-2.2l0,0c-2.2-6.5-4.1-12-4.8-14.2c0-0.1,0-0.1-0.1-0.2c-0.2-0.5-0.3-0.8-0.3-0.9c0,0,0-0.1,0-0.1
								l-0.5,0.2h0L23.2,211.6z"/>
							<path class="st8" d="M25.5,228.4C25.5,228.4,25.5,228.4,25.5,228.4c0.4,2.5,0.7,5.1,1.1,7.7c0.6,3.8,1.2,7.7,1.8,11.3
								c1-1.4,2.2-2.7,3.4-3.2c1.8-0.7,3.8,0.3,5.4,5.7c0.5,1.5,0.9,3.3,1.4,5.2c0.6,2.3,1.2,4.9,1.8,7.6c0,0.1,0,0.2,0.1,0.3
								c2.7,11.7,5.3,25.4,6.1,29.3c0.1,0.3,0.1,0.5,0.1,0.7c0,0.2,0.1,0.3,0.1,0.4c0-0.3-0.1-0.7-0.1-1.1c-0.1-0.7-0.2-1.5-0.3-2.3
								c0-0.3-0.1-0.7-0.1-1c0-0.1,0-0.2,0-0.3c-0.1-0.6-0.2-1.1-0.2-1.7c0-0.2,0-0.3-0.1-0.5c-0.4-2.9-0.9-5.9-1.4-9
								c-0.2-1.1-0.4-2.2-0.5-3.3c-0.1-0.3-0.1-0.7-0.2-1c0-0.3-0.1-0.5-0.1-0.8c0-0.1,0-0.2,0-0.3c-0.1-0.6-0.2-1.2-0.3-1.9
								c0,0,0,0,0,0c-0.6-3.5-1.3-6.9-2-10c0-0.1,0-0.1,0-0.2c-0.4-1.8-0.8-3.5-1.2-5.1c-0.2-0.6-0.3-1.2-0.5-1.8
								c-0.7-2.5-1.6-5.5-2.6-8.8c-0.1-0.4-0.2-0.7-0.3-1.1c0-0.1-0.1-0.2-0.1-0.3c-0.1-0.3-0.2-0.6-0.3-0.9
								c-0.8-2.5-1.6-5.2-2.5-7.8c-0.7-2-1.3-4-1.9-6c0,0,0-0.1,0-0.1c-0.2-0.8-0.5-1.5-0.7-2.3l0,0l-5,2.1l-0.4,0.1L25.5,228.4
								C25.5,228.3,25.5,228.3,25.5,228.4z"/>
							
								<linearGradient id="SVGID_4_" gradientUnits="userSpaceOnUse" x1="1827.2743" y1="-3343.8401" x2="1826.729" y2="-3343.2197" gradientTransform="matrix(-0.9688 0.2478 -0.2478 -0.9688 982.6628 -3431.1563)">
								<stop  offset="0" style="stop-color:#A9805A"/>
								<stop  offset="1" style="stop-color:#000000"/>
							</linearGradient>
							<path class="st15" d="M41.4,260.3c-0.1,0.3-0.2,0.6-0.4,0.9c0.1-0.4,0.2-0.7,0.3-1.1c0,0,0,0,0,0c0,0,0,0,0,0
								C41.4,260.2,41.4,260.2,41.4,260.3C41.4,260.3,41.4,260.3,41.4,260.3z"/>
							<path class="st3" d="M36,280.7C36,280.7,36,280.7,36,280.7c0-3.4,0.2-6.6,1.1-8.9c1.2-3.2,2.4-6.4,3.5-9.2
								c0.2-0.5,0.4-0.9,0.5-1.4c-0.2,0.5-0.3,1.1-0.5,1.6c-0.6,2.3-1.3,5.1-2,8.5c-1,5-1,10.6-0.6,15.7
								C37.3,285.1,36.6,282.9,36,280.7z"/>
							<path class="st3" d="M33.8,273c0.6-1.5,1.1-3,1.7-4.4c0.2-0.5,0.4-0.9,0.5-1.4c-0.2,0.5-0.3,1.1-0.5,1.6
								c-0.4,1.6-0.9,3.4-1.4,5.5C34.1,273.9,33.9,273.5,33.8,273z"/>
						</g>
						
							<linearGradient id="SVGID_5_" gradientUnits="userSpaceOnUse" x1="2346.9878" y1="222.9207" x2="2335.0945" y2="223.487" gradientTransform="matrix(-1 0 0 1 2365.6465 0)">
							<stop  offset="0" style="stop-color:#BAD8D8"/>
							<stop  offset="1" style="stop-color:#B3AFB4"/>
						</linearGradient>
						<path class="st16" d="M21.5,211.7l0.3,1.5l3.9,23l0.9-0.2l5.5-1.2h0l1.8-0.4l0,0l1.3-0.3l-7.8-23.7l-0.4,0.1c0,0,0,0,0,0h0v0
							l-1.1,0.2l-0.6,0.1h0l-0.5,0.1l-3.1,0.7h0v0l0,0L21.5,211.7z"/>
						<path class="st13" d="M21.8,213.3l3.9,23l0.9-0.2l5.5-1.2c-2-0.1-4-0.4-4.4-0.7c-0.4-0.2-1.1-2.7-1.8-5.9
							c-0.4-1.5-0.7-3.2-1.1-4.9c-1.1-5-2-9.9-2-9.9L21.8,213.3z"/>
						<path class="st12" d="M21.9,211.6C21.9,211.6,21.9,211.7,21.9,211.6C22,211.7,22,211.7,21.9,211.6c0.3,0.2,0.8,0.6,1.4,0.9
							c0.1,0.1,0.3,0.1,0.4,0.2l0,0c0.5,0.2,0.9,0.3,1.3,0.2c0.5-0.1,1-0.7,1.4-1.2c0.1-0.1,0.1-0.2,0.2-0.3
							c0.3-0.4,0.5-0.7,0.6-0.9v0c0-0.1,0.1-0.1,0.1-0.1c0,0,0,0,0,0l0,0l-1.1,0.3l-0.6,0.1h0l-0.5,0.1L21.9,211.6L21.9,211.6
							L21.9,211.6z"/>
					</g>
					<g>
						<path class="st6" d="M67.6,226.1L67.6,226.1C67.6,226.1,67.6,226.1,67.6,226.1L67.6,226.1c0,0.9,0.1,1.4,0.1,1.4l0.2,0l0.2,0
							l1.4,0.1l0.1,0l0.2,0c0,0,0.1-0.2,0.3-0.5c0,0,0,0,0,0c0,0,0,0,0-0.1v0c0.6-1.2,1.9-4.3,2.5-7.3c0.4-1.8,0.3-4.2,0.1-6.4
							c-0.2-2.6-0.6-5-0.6-6.3c0-0.9,0.1-1.8,0.2-2.6c-0.5,1.3-1,2.9-1.3,4.5c-0.4,2.7-0.4,6.1-0.4,6.5c0-0.5-0.2-5.3-0.2-6.8
							c0-0.4,0.1-0.9,0.2-1.6c-1,2.5-2.1,5.5-2.5,7.7c-0.4,1.9-0.6,4.6-0.6,7C67.6,223.4,67.6,225,67.6,226.1z"/>
						<path class="st7" d="M67.6,226.1L67.6,226.1C67.6,226.1,67.6,226.1,67.6,226.1L67.6,226.1c0,0.9,0.1,1.4,0.1,1.4c0,0,0,0,0,0
							l0.2,0l0.2,0l1.4,0.1l0.1,0l0.2,0c0,0,0.1-0.2,0.3-0.5c0,0,0,0,0,0c0,0,0,0,0-0.1v0c0.6-1.2,1.9-4.3,2.5-7.3
							c0.4-1.8,0.3-4.2,0.1-6.4c-0.2,2.5-0.5,5.3-1.1,7.3c-1.2,4.1-2.6,3.7-2.6,3.7l-0.4-3.7l-0.1,3.6c0,0-0.5,0.3-0.9-2.5
							C67.6,223.4,67.6,225,67.6,226.1z"/>
						<g>
							<path class="st2" d="M57.1,306.3c0,0.2,0.1,0.4,0.1,0.5c0.1,0.1,0.1,0.2,0.2,0.2c0.4,0.1,1-1.8,1.8-4.9c0-0.1,0-0.2,0.1-0.3
								c0-0.1,0.1-0.2,0.1-0.4c0.2-0.8,0.4-1.7,0.6-2.7c0.1-0.4,0.2-0.7,0.2-1.1c0.1-0.2,0.1-0.5,0.2-0.7c0,0,0-0.1,0-0.1
								c0.2-0.7,0.3-1.5,0.5-2.3c0.1-0.3,0.1-0.5,0.2-0.8c0,0,0-0.1,0-0.1c0-0.1,0-0.1,0-0.2c0.1-0.4,0.2-0.9,0.3-1.3
								c0,0,0-0.1,0-0.1c0,0,0,0,0,0c0.1-0.7,0.3-1.4,0.4-2.2c0.4-1.8,0.7-3.7,1-5.6c0.2-0.9,0.3-1.8,0.5-2.7c0-0.3,0.1-0.5,0.1-0.8
								c0-0.2,0.1-0.4,0.1-0.7c0-0.1,0-0.1,0-0.2c0.1-0.5,0.2-1,0.3-1.5c0,0,0,0,0,0c0.5-2.9,0.9-5.7,1.3-8.3v0c0,0,0-0.1,0-0.1
								c0,0,0,0,0,0c0.3-2.1,0.6-4,0.8-5.6c0.2-1.3,0.3-2.8,0.5-4.3c0.1-0.8,0.2-1.7,0.3-2.6c0-0.3,0.1-0.6,0.1-1
								c0-0.3,0.1-0.6,0.1-1c0-0.1,0-0.1,0-0.2c0-0.1,0-0.2,0-0.3c0,0,0,0,0,0c0-0.2,0-0.3,0-0.5c0-0.2,0-0.5,0.1-0.7
								c0.2-2,0.4-4.1,0.6-6.1c0.2-1.8,0.3-3.6,0.5-5.3c0,0,0-0.1,0-0.1c0.1-0.7,0.1-1.3,0.2-2l0,0c0.5-5.8,0.9-10.6,1.1-12.6
								c0,0,0-0.1,0-0.1c0-0.4,0.1-0.7,0.1-0.8c0,0,0-0.1,0-0.1l-0.3-0.1l0,0l-1.1-0.2c0,0-0.1,0.3-0.1,0.7c0,0.1,0,0.2-0.1,0.3v0
								c-0.3,1.5-0.9,4.6-1.7,8.5c-0.1,0.3-0.1,0.5-0.1,0.8c-0.2,1.1-0.4,2.2-0.6,3.3c0,0,0,0,0,0c0,0,0,0,0,0
								c-0.4,2-0.8,4.1-1.2,6.2c-0.6,2.9-1.1,5.9-1.6,8.7c0,0,0,0,0,0c0,0.2-0.1,0.4-0.1,0.6c-0.6,3.2-1.1,6.2-1.5,8.6
								c-0.6,3.6-1.2,8-1.8,12.7c0,0.1,0,0.2,0,0.3c0,0.4-0.1,0.8-0.1,1.2c-0.2,1.8-0.4,3.6-0.6,5.5c0,0,0,0,0,0
								c-0.2,1.9-0.4,3.8-0.6,5.6c0,0,0,0,0,0c-0.1,0.9-0.2,1.9-0.3,2.8c0,0.5-0.1,1-0.1,1.5c-0.1,1.3-0.2,2.6-0.3,3.8
								c0,0.1,0,0.1,0,0.2c-0.1,1.4-0.2,2.6-0.2,3.7c0,0.3,0,0.5,0,0.8C56.9,304,57,305.5,57.1,306.3z"/>
							<path class="st8" d="M60.3,297.2c0.2-0.9,0.4-1.8,0.5-2.7c0.1-0.3,0.1-0.5,0.2-0.8c0,0,0-0.1,0-0.1c0-0.1,0-0.1,0-0.2
								c0.1-0.4,0.2-0.9,0.3-1.3c0,0,0-0.1,0-0.1c0,0,0,0,0,0c0.1-0.7,0.3-1.4,0.4-2.2c0.3-1.8,0.7-3.7,1-5.6
								c0.2-0.9,0.3-1.8,0.5-2.7c0-0.3,0.1-0.5,0.1-0.8c0-0.2,0.1-0.4,0.1-0.7c0-0.1,0-0.1,0-0.2c0.1-0.5,0.2-1,0.3-1.5c0,0,0,0,0,0
								c0.5-2.9,0.9-5.7,1.3-8.3c0,0,0-0.1,0-0.1c0.3-2.1,0.6-4.1,0.8-5.8c0.3-2.2,0.6-4.8,0.8-7.6c0-0.3,0.1-0.6,0.1-1
								c0-0.1,0-0.1,0-0.2c0-0.1,0-0.2,0-0.3c0,0,0,0,0,0c0-0.2,0-0.3,0-0.5c0-0.2,0-0.5,0.1-0.7c0.2-2,0.4-4,0.6-6.1
								c0.2-1.8,0.3-3.5,0.5-5.3c0,0,0-0.1,0-0.1c0.1-0.7,0.1-1.3,0.2-2h0l-2.5-0.2l-0.2,0l-0.2,0c0,0,0,0,0,0c0,0,0,0,0,0
								c-0.4,2-0.8,4.1-1.2,6.2c-0.6,2.9-1.1,5.9-1.6,8.7c0,0,0,0,0,0c0,0.2-0.1,0.4-0.1,0.6c0.2-0.2,0.4-0.4,0.6-0.6c0,0,0,0,0,0
								c0.5-0.4,1-0.7,1.5-0.7c0.3,0,0.6,0.2,0.8,0.7c0,0,0,0,0,0c0.4,0.8,0.5,2.6,0.2,5.6c-0.3,2.9-0.8,6.8-1.4,11
								c0,0.1,0,0.1,0,0.2c-1,7.2-2.3,15.3-3.1,20.4c-0.1,0.5-0.2,1-0.2,1.5c-0.2,1.5-0.4,2.6-0.5,3.2c0,0,0,0.1,0,0.1
								C60.3,297.1,60.3,297.2,60.3,297.2z"/>
							
								<linearGradient id="SVGID_6_" gradientUnits="userSpaceOnUse" x1="1842.9569" y1="-4083.074" x2="1842.6031" y2="-4082.6716" gradientTransform="matrix(-0.9799 -0.1994 0.1994 -0.9799 2684.8345 -3362.9304)">
								<stop  offset="0" style="stop-color:#A9805A"/>
								<stop  offset="1" style="stop-color:#000000"/>
							</linearGradient>
							<path class="st17" d="M65.2,270.2c-0.1,0.2-0.2,0.4-0.3,0.6c0.1-0.2,0.2-0.5,0.4-0.7c0,0,0,0,0,0c0,0,0,0,0,0
								C65.2,270.1,65.2,270.1,65.2,270.2C65.2,270.2,65.2,270.2,65.2,270.2z"/>
							<path class="st3" d="M58.5,283.8C58.5,283.8,58.5,283.8,58.5,283.8c0.7-2.6,1.5-4.9,2.4-6.4c1.2-2,2.4-4.1,3.4-5.8
								c0.2-0.3,0.4-0.6,0.5-0.9c-0.2,0.3-0.4,0.7-0.6,1.1c-0.8,1.5-1.6,3.4-2.7,5.8c-1.5,3.5-2.7,7.7-3.7,11.8
								C58.1,287.6,58.3,285.7,58.5,283.8z"/>
							<path class="st3" d="M59.3,277.2c0.6-1,1.1-1.9,1.7-2.8c0.2-0.3,0.4-0.6,0.5-0.9c-0.2,0.3-0.4,0.7-0.6,1.1
								c-0.5,1-1.1,2.3-1.8,3.7C59.2,278,59.2,277.6,59.3,277.2z"/>
						</g>
						
							<linearGradient id="SVGID_7_" gradientUnits="userSpaceOnUse" x1="2302.1626" y1="236.7886" x2="2297.8025" y2="236.9962" gradientTransform="matrix(-1 0 0 1 2365.6465 0)">
							<stop  offset="0" style="stop-color:#BAD8D8"/>
							<stop  offset="1" style="stop-color:#B3AFB4"/>
						</linearGradient>
						<polygon class="st18" points="63.9,246.2 64.3,246.4 66.9,247.4 66.9,247.4 67.7,247.7 67.7,247.7 68.3,248 70.3,227.1 
							70.1,227.1 70.1,227.1 70.1,227.1 69.5,226.9 69.3,226.8 69.3,226.7 67.6,226.1 67.6,226.1 67.6,226.1 67.4,226 67.2,227.3 
													"/>
						<path class="st13" d="M63.9,246.2l0.4,0.2l2.6,1c-0.8-0.8-1.6-1.7-1.7-2.1c-0.1-0.3,0.1-2.5,0.5-5.2c0.2-1.3,0.4-2.7,0.6-4.1
							c0.6-4.3,1.3-8.4,1.3-8.4l-0.4-0.4L63.9,246.2z"/>
						<path class="st12" d="M67.6,226.1C67.6,226.1,67.6,226.1,67.6,226.1L67.6,226.1c0.1,0.3,0.2,0.7,0.4,1.2
							c0,0.1,0.1,0.2,0.1,0.3v0c0.1,0.3,0.3,0.6,0.5,0.6c0.2,0.1,0.6-0.1,0.9-0.4c0,0,0.1-0.1,0.1-0.1c0.2-0.2,0.4-0.4,0.4-0.5
							c0,0,0,0,0,0c0,0,0-0.1,0-0.1l0,0l-0.5-0.2l-0.3-0.1l0,0L67.6,226.1L67.6,226.1z"/>
					</g>
					<polygon class="st0" points="26.8,255 33.4,293.6 34,297.6 34.9,302.5 36.4,311.6 36.6,312.3 36.6,312.5 36.8,313.7 
						43.9,313.6 49.5,313.6 50.5,313.6 51.2,313.6 72.9,313.6 75.5,313.6 75.6,312.8 75.7,312.3 75.8,311.8 78.7,292.3 78.7,292.2 
						84.1,256 84.2,255.1 84.2,255 					"/>
					<polygon class="st2" points="34,297.6 34.9,302.5 38.2,302.4 40.5,302.4 43.6,302.4 47.4,302.3 48.4,302.3 53,302.2 53,302.2 
						57,302.1 59.2,302.1 60.1,302.1 77.1,301.8 77.5,297.6 					"/>
					<polygon class="st2" points="33.4,292.2 33.4,293.6 78.3,293.6 78.3,293.6 78.7,292.3 78.7,292.2 					"/>
					<path class="st19" d="M58.6,255.1c0,0,0.3,10.1,0.7,21.8c0,0.1,0,0.1,0,0.2c0,0.3,0,0.5,0,0.8c0,1,0.1,1.9,0.1,2.9
						c0,0.9,0.1,1.7,0.1,2.6c0.1,3,0.2,5.9,0.3,8.8c0,0.5,0,1,0,1.5c0,1.4,0.1,2.7,0.1,4c0,0.4,0,0.7,0,1.1c0,1.2,0.1,2.3,0.1,3.3
						c0.1,4.5,0.2,8,0.3,9.7c0,0.3,0,0.5,0,0.6c0,0.2,0,0.3,0,0.4v0h15l0.1-0.4l0.1-0.6l1.5-10l1.3-8.2l0.2-1.4l5.6-36.2l0.1-0.9
						H58.6z"/>
					<polygon class="st20" points="35.9,257.2 30.3,257.2 39.9,312.5 41.6,312.5 					"/>
				</g>
			</g>
		</g>
	</g>
</g>
<path class="st1" d="M195.8,158.1l-1.4,5.2c12.4,5.5,20.6,18.2,19.7,32.5c-0.8,12-7.8,22.2-17.8,27.4l0,0
	c-6.9-4.5-15.1-7.4-23.9-7.9c-5.4-0.3-10.6,0.2-15.6,1.5c-6.2-6.5-9.8-15.5-9.2-25.1c0.9-14.1,10.4-25.6,23.1-29.6l3.7-6.4
	c-17.4,2.9-31.1,17.4-32.2,35.7c-0.6,10.3,2.8,19.9,9,27.3c6.6,7.8,16.2,13,27.2,13.7c8.2,0.5,16-1.6,22.6-5.6
	c10.4-6.4,17.6-17.5,18.4-30.6C220.5,179.3,210.6,164.3,195.8,158.1z M205,193.5l1.7-10.9c-4.8-2.9-9.8-5.1-14.8-6.6l0.4-3.3
	c-1.1-0.3-3.6-0.6-4.7-0.9l4.1-15.4l-7.3-0.1l5.5-18.3l-11.3,19.4l-2,3.5l8.3,0.5l-3.6,9c-0.9-0.1-3.8-0.2-4.7-0.3l-0.5,3.4
	c-5.5-0.1-11.2,0.4-16.9,1.7l-1.6,10.5l-3.9-0.6l-1.5,9.6l3.9,0.7l-1.3,8.5c15.2,8.8,31,11.5,47.5,7.4l1.2-7.6l4,0.7l1.3-10.4
	L205,193.5z M198.6,192.5l-1.6,10.2l-0.5,3.3c-4.2,0.7-8.4,1-12.5,0.7c-7.4-0.5-14.8-2.5-22.1-6.2l0.6-3.8l1.5-9.7l0.9-6
	c4.5-0.7,8.9-0.9,13.1-0.6c7.4,0.5,14.7,2.5,21.5,6L198.6,192.5z M192.3,194.5c0,0.4-0.2,0.9-0.6,1.2c-0.7,0.6-1.8,0.6-2.5-0.2
	l-1.4-1.6l-1.6,1.4c-0.7,0.6-1.8,0.6-2.5-0.2c-0.3-0.4-0.5-0.8-0.4-1.3c0-0.4,0.2-0.9,0.6-1.2l2.6-2.3c0.4-0.4,1-0.5,1.5-0.5
	c0.5,0,1.1,0.2,1.4,0.6l2.3,2.6C192.2,193.6,192.4,194,192.3,194.5z M177.7,192.4c0,0.4-0.2,0.9-0.6,1.2c-0.7,0.6-1.8,0.6-2.5-0.2
	l-1.4-1.6l-1.6,1.4c-0.7,0.6-1.8,0.6-2.5-0.2c-0.3-0.4-0.5-0.8-0.4-1.3c0-0.4,0.2-0.9,0.6-1.2l2.6-2.3c0.4-0.4,1-0.5,1.5-0.5
	c0.5,0,1.1,0.2,1.4,0.6l2.3,2.6C177.6,191.5,177.7,191.9,177.7,192.4z"/>
</svg>
